<?xml version="1.0" standalone="no"?><!-- Generator: Gravit.io --><svg xmlns="http://www.w3.org/2000/svg" xmlns:xlink="http://www.w3.org/1999/xlink" style="isolation:isolate" viewBox="0 0 1522.786 319.36" width="1522.786" height="319.36"><defs><clipPath id="_clipPath_INXASIdfKM8CocvHNqBS7XUlMu1339hr"><rect width="1522.786" height="319.36"/></clipPath></defs><g clip-path="url(#_clipPath_INXASIdfKM8CocvHNqBS7XUlMu1339hr)"><g id="g3732"><g id="g3738"><path d=" M 404.098 236.807 C 387.231 236.807 369.487 233.083 357.001 227.388 L 362.478 201.976 C 375.841 206.139 389.422 208.987 404.537 208.987 C 421.403 208.987 424.69 205.702 424.69 193.434 C 424.69 180.291 424.033 178.756 400.155 173.5 C 364.887 165.834 359.63 158.823 359.63 127.279 C 359.63 98.143 369.926 86.534 410.013 86.534 C 422.718 86.534 438.051 87.848 454.263 91.354 L 450.977 118.954 C 434.329 116.107 423.594 114.792 410.451 114.792 C 395.774 114.792 392.487 117.422 392.487 128.155 C 392.487 142.174 393.146 142.392 416.147 147.87 C 455.577 157.29 457.549 164.956 457.549 193.654 C 457.549 222.568 448.129 236.807 404.098 236.807 Z " fill="rgb(0,91,164)"/></g><g id="g3742"><path d=" M 516.252 236.807 C 495.879 236.807 484.051 229.14 484.051 209.424 L 484.051 153.346 L 469.592 153.346 L 469.592 127.936 L 484.051 127.936 L 484.051 102.306 L 515.595 97.924 L 515.595 127.936 L 539.91 127.936 L 538.159 153.346 L 515.595 153.346 L 515.595 205.044 C 515.595 209.424 518.223 210.958 522.167 210.958 C 525.671 210.958 530.71 210.52 535.31 208.987 L 539.032 232.863 C 532.024 235.274 523.48 236.807 516.252 236.807 Z " fill="rgb(0,91,164)"/></g><g id="g3746"><path d=" M 610.88 196.281 L 595.765 196.281 C 588.976 196.281 586.347 198.034 586.347 203.948 C 586.347 209.864 588.756 212.272 594.889 212.272 C 601.461 212.272 606.061 210.74 610.88 208.549 L 610.88 196.281 Z  M 616.576 234.617 L 614.385 227.825 C 602.119 234.617 591.164 236.808 583.937 236.808 C 564.221 236.808 556.116 222.569 556.116 204.386 C 556.116 182.92 565.975 174.376 587.88 174.376 L 610.88 174.376 L 610.88 166.272 C 610.88 155.318 608.909 151.594 592.043 151.594 C 582.624 151.594 573.203 152.689 563.125 154.661 L 558.964 131.002 C 569.041 127.936 585.032 125.746 597.3 125.746 C 634.32 125.746 642.425 136.918 642.425 166.49 L 642.425 234.617 L 616.576 234.617 Z " fill="rgb(0,91,164)"/></g><g id="g3750"><path d=" M 704.416 236.807 C 684.043 236.807 672.214 229.14 672.214 209.424 L 672.214 153.346 L 657.756 153.346 L 657.756 127.936 L 672.214 127.936 L 672.214 102.306 L 703.759 97.924 L 703.759 127.936 L 728.074 127.936 L 726.32 153.346 L 703.759 153.346 L 703.759 205.044 C 703.759 209.424 706.387 210.958 710.328 210.958 C 713.835 210.958 718.872 210.52 723.474 208.987 L 727.196 232.863 C 720.188 235.274 711.643 236.807 704.416 236.807 Z " fill="rgb(0,91,164)"/></g><g id="g3754"><path d=" M 778.015 127.936 L 778.015 198.471 C 778.015 203.292 780.204 206.139 785.68 206.139 C 791.376 206.139 801.891 202.196 808.681 198.471 L 808.681 127.936 L 840.225 127.936 L 840.225 234.617 L 816.788 234.617 L 813.501 226.511 C 800.357 232.863 783.269 236.807 771.005 236.807 C 752.821 236.807 746.469 223.227 746.469 202.633 L 746.469 127.936 L 778.015 127.936 Z " fill="rgb(0,91,164)"/></g><g id="g3758"><path d=" M 901.996 236.807 C 890.386 236.807 873.739 233.959 863.224 230.454 L 868.262 207.015 C 877.024 209.643 888.635 211.835 900.464 211.835 C 909.884 211.835 911.415 209.207 911.415 202.854 C 911.415 196.062 911.198 195.187 894.111 191.024 C 868.262 184.671 865.854 177.663 865.854 157.727 C 865.854 135.164 874.615 125.746 906.598 125.746 C 914.702 125.746 929.599 126.84 939.018 129.251 L 936.17 153.784 C 926.75 152.031 915.14 150.718 906.816 150.718 C 897.616 150.718 895.426 153.128 895.426 157.947 C 895.426 164.518 896.302 165.394 909.007 168.242 C 939.455 175.032 941.646 181.604 941.646 202.854 C 941.646 224.759 932.446 236.807 901.996 236.807 Z " fill="rgb(0,91,164)"/></g><g id="g3762"><path d=" M 1081.183 186.424 C 1081.183 178.319 1076.145 174.158 1067.381 174.158 L 1042.409 174.158 L 1042.409 208.111 L 1062.783 208.111 C 1073.077 208.111 1081.183 205.92 1081.183 195.404 L 1081.183 186.424 Z  M 1075.925 125.526 C 1075.925 119.174 1071.981 115.231 1062.783 115.231 L 1042.409 115.231 L 1042.409 148.527 L 1062.783 148.527 C 1071.544 148.527 1075.925 144.147 1075.925 138.232 L 1075.925 125.526 Z  M 1071.763 234.618 L 1009.549 234.618 L 1009.549 88.726 L 1067.163 88.726 C 1097.611 88.726 1108.784 100.991 1108.784 120.706 L 1108.784 135.603 C 1108.784 146.118 1104.184 153.564 1092.573 158.604 C 1104.621 161.452 1114.041 171.967 1114.041 185.548 L 1114.041 199.786 C 1114.041 220.379 1100.897 234.618 1071.763 234.618 Z " fill="rgb(0,91,164)"/></g><g id="g3766"><path d=" M 1194.211 194.53 L 1194.211 168.023 C 1194.211 157.947 1188.954 152.252 1177.563 152.252 C 1166.173 152.252 1160.914 157.947 1160.914 168.023 L 1160.914 194.53 C 1160.914 204.606 1166.173 210.3 1177.563 210.3 C 1188.954 210.3 1194.211 204.606 1194.211 194.53 Z  M 1129.371 193.654 L 1129.371 168.899 C 1129.371 146.994 1139.666 125.746 1177.563 125.746 C 1215.462 125.746 1225.755 146.994 1225.755 168.899 L 1225.755 193.654 C 1225.755 215.558 1215.462 236.807 1177.563 236.807 C 1139.666 236.807 1129.371 215.558 1129.371 193.654 Z " fill="rgb(0,91,164)"/></g><g id="g3770"><path d=" M 1300.231 196.281 L 1285.116 196.281 C 1278.325 196.281 1275.697 198.034 1275.697 203.948 C 1275.697 209.864 1278.105 212.272 1284.24 212.272 C 1290.812 212.272 1295.412 210.74 1300.231 208.549 L 1300.231 196.281 Z  M 1305.927 234.617 L 1303.736 227.825 C 1291.469 234.617 1280.515 236.808 1273.288 236.808 C 1253.572 236.808 1245.467 222.569 1245.467 204.386 C 1245.467 182.92 1255.324 174.376 1277.231 174.376 L 1300.231 174.376 L 1300.231 166.272 C 1300.231 155.318 1298.259 151.594 1281.392 151.594 C 1271.975 151.594 1262.553 152.689 1252.476 154.661 L 1248.315 131.002 C 1258.391 127.936 1274.383 125.746 1286.649 125.746 C 1323.669 125.746 1331.776 136.918 1331.776 166.49 L 1331.776 234.617 L 1305.927 234.617 Z " fill="rgb(0,91,164)"/></g><g id="g3774"><path d=" M 1389.603 169.556 L 1389.603 234.616 L 1358.06 234.616 L 1358.06 127.936 L 1384.347 127.936 L 1386.536 138.232 C 1393.11 133.85 1406.688 127.498 1415.234 125.746 L 1417.862 155.536 C 1408.442 159.262 1396.395 164.736 1389.603 169.556 Z " fill="rgb(0,91,164)"/></g><g id="g3778"><path d=" M 1491.242 155.755 C 1485.766 154.443 1477.661 153.128 1471.089 153.128 C 1462.765 153.128 1459.698 158.166 1459.698 165.175 L 1459.698 197.378 C 1459.698 204.824 1462.765 209.424 1471.089 209.424 C 1478.32 209.424 1486.644 205.044 1491.242 201.1 L 1491.242 155.755 Z  M 1428.154 165.175 C 1428.154 139.984 1439.105 125.746 1464.08 125.746 C 1472.84 125.746 1484.014 127.06 1491.242 128.812 L 1491.242 84.344 L 1522.786 79.962 L 1522.786 234.616 L 1498.034 234.616 L 1494.748 226.074 C 1487.301 230.894 1473.497 236.807 1461.888 236.807 C 1440.202 236.807 1428.154 223.446 1428.154 197.378 L 1428.154 165.175 Z " fill="rgb(0,91,164)"/></g><g id="g3782"><path d=" M 307.489 189.323 L 307.399 189.412 L 277.084 159.099 L 307.488 128.695 L 307.489 128.696 L 324.804 111.38 L 213.424 0 L 196.108 17.315 L 196.131 17.337 L 164.377 49.093 L 135.172 19.888 L 135.18 19.88 L 117.865 2.565 L 117.857 2.573 L 117.849 2.565 L 100.535 19.88 L 100.543 19.888 L 23.807 96.624 L 23.799 96.616 L 6.485 113.931 L 6.492 113.937 L 6.485 113.945 L 23.799 131.261 L 23.807 131.253 L 94.144 201.589 L 94.144 226.092 L 135.779 226.092 L 135.779 184.457 L 111.64 184.457 L 41.121 113.937 L 117.857 37.203 L 189.577 108.923 L 189.577 133.243 L 231.212 133.243 L 231.212 91.608 L 206.892 91.608 L 181.691 66.407 L 213.447 34.652 L 290.173 111.379 L 242.453 159.1 L 259.767 176.415 L 259.769 176.412 L 290.084 206.728 L 213.429 283.383 L 183.628 253.581 L 210.352 226.857 L 233.644 226.857 L 233.644 185.224 L 206.457 185.224 L 137.3 116.067 L 137.3 91.608 L 95.667 91.608 L 95.667 133.243 L 119.847 133.243 L 192.009 205.407 L 192.009 210.572 L 117.336 285.244 L 41.635 209.543 L 41.635 185.224 L 0 185.224 L 0 226.857 L 24.321 226.857 L 116.823 319.36 L 117.336 318.849 L 117.849 319.36 L 166.313 270.897 L 196.115 300.696 L 196.108 300.703 L 213.424 318.017 L 213.429 318.012 L 213.437 318.02 L 230.752 300.705 L 230.744 300.696 L 324.804 206.636 L 307.489 189.323 Z " fill="rgb(0,91,164)"/></g></g></g></svg>